<svg width="313" height="81" viewBox="0 0 313 81" fill="none" xmlns="http://www.w3.org/2000/svg">
<path d="M21.0585 0.444134L0.0197608 79.3212C-0.00422064 79.4166 -0.00640417 79.5163 0.0133728 79.6127C0.0331497 79.7092 0.0743862 79.7999 0.134015 79.8783C0.193643 79.9566 0.270139 80.0205 0.357839 80.0653C0.445539 80.11 0.542185 80.1346 0.640631 80.1369H18.9475C19.0895 80.1375 19.2277 80.0907 19.3401 80.004C19.4526 79.9173 19.5329 79.7956 19.5684 79.6581L40.5717 0.834211C40.5956 0.738735 40.5978 0.63917 40.578 0.542736C40.5583 0.446301 40.517 0.35547 40.4574 0.277128C40.3978 0.198786 40.3213 0.134871 40.2336 0.0900986C40.1459 0.0453266 40.0492 0.0209129 39.9508 0.0185555H21.6616C21.5294 0.0183394 21.4003 0.0591063 21.2923 0.135341C21.1843 0.211575 21.1026 0.3195 21.0585 0.444134Z" fill="#FF7224"/>
<path d="M38.7977 43.3406L66.0984 79.8532C66.1589 79.9329 66.2366 79.9982 66.3255 80.0442C66.4145 80.0902 66.5127 80.1158 66.6128 80.1191H90.0995C90.2197 80.1208 90.3378 80.0886 90.4405 80.0262C90.5431 79.9638 90.626 79.8737 90.6797 79.7663C90.7335 79.6588 90.7558 79.5385 90.7442 79.4189C90.7325 79.2994 90.6874 79.1856 90.614 79.0905L63.1359 41.4076C62.4933 40.5332 62.2155 39.4436 62.3611 38.3684C62.5067 37.2932 63.0644 36.3164 63.9164 35.6443L107.395 1.15343C107.506 1.07234 107.588 0.957684 107.628 0.826564C107.669 0.695443 107.666 0.554805 107.62 0.425446C107.574 0.296088 107.488 0.184926 107.374 0.108427C107.26 0.0319283 107.124 -0.00584354 106.987 0.000733942H83.9263C83.7838 0.00184257 83.646 0.0519647 83.536 0.142629L39.9685 34.1371C38.6045 35.2108 37.7173 36.7775 37.4983 38.4992C37.2793 40.2209 37.7459 41.9597 38.7977 43.3406Z" fill="#FF7224"/>
<path d="M117.932 60.914C117.589 60.3982 117.363 59.813 117.271 59.2C117.179 58.587 117.223 57.9613 117.4 57.3674L126.536 23.2134C126.96 21.718 127.856 20.3994 129.09 19.4539C130.255 18.4883 131.711 17.9446 133.224 17.9111H198.983C199.127 17.9097 199.266 17.8626 199.381 17.7765C199.496 17.6904 199.58 17.5698 199.622 17.4324L204.021 0.88734C204.049 0.79165 204.054 0.690864 204.035 0.592942C204.017 0.49502 203.976 0.402712 203.916 0.323438C203.855 0.244164 203.777 0.180021 203.688 0.1363C203.598 0.0925795 203.5 0.070421 203.4 0.0715762H135.991C129.395 0.236352 123.046 2.61628 117.968 6.8279C112.626 10.9486 108.737 16.663 106.863 23.1424L97.7629 57.3674C96.9122 60.0598 96.6809 62.9096 97.0864 65.7039C97.4918 68.4982 98.5236 71.1648 100.105 73.5046C101.762 75.6735 103.916 77.4128 106.385 78.5762C108.855 79.7396 111.568 80.293 114.296 80.1899H182.255C182.398 80.1885 182.538 80.1414 182.653 80.0553C182.768 79.9692 182.852 79.8486 182.893 79.7112L187.311 63.1484C187.335 63.0529 187.337 62.9533 187.317 62.8568C187.297 62.7604 187.256 62.6697 187.196 62.5913C187.137 62.513 187.06 62.4491 186.972 62.4043C186.885 62.3595 186.788 62.3351 186.69 62.3328H121.072C120.474 62.365 119.876 62.2529 119.329 62.006C118.783 61.7591 118.304 61.3846 117.932 60.914Z" fill="#FF7224"/>
<path d="M292.575 17.1841C292.948 16.6521 292.77 16.0314 292.309 15.4108L280.176 0.319828C280.118 0.242745 280.043 0.180219 279.957 0.137128C279.87 0.0940374 279.775 0.0715382 279.679 0.0715382H219.365C219.223 0.070974 219.085 0.117738 218.973 0.20445C218.86 0.291163 218.78 0.412911 218.745 0.550368L214.416 17.0777C214.389 17.1734 214.384 17.2742 214.402 17.3721C214.42 17.47 214.461 17.5623 214.521 17.6416C214.582 17.7209 214.66 17.7849 214.749 17.8286C214.839 17.8723 214.937 17.8946 215.037 17.8934H290.926C291.239 17.9327 291.557 17.8875 291.847 17.7628C292.137 17.6381 292.388 17.4384 292.575 17.1841ZM304.673 31.211H211.17C211.028 31.2104 210.89 31.2572 210.777 31.3439C210.665 31.4306 210.585 31.5523 210.549 31.6898L206.167 48.1993C206.143 48.2963 206.141 48.3974 206.162 48.4951C206.183 48.5929 206.226 48.6847 206.287 48.7634C206.349 48.842 206.428 48.9056 206.518 48.9492C206.607 48.9928 206.706 49.0154 206.806 49.0151H303.662C303.818 49.0128 303.969 48.9563 304.088 48.8555L312.585 41.4253C312.669 41.3365 312.715 41.2191 312.715 41.0972C312.715 40.9753 312.669 40.858 312.585 40.7691L305.099 31.4592C305.049 31.391 304.985 31.3337 304.912 31.291C304.839 31.2483 304.758 31.2211 304.673 31.211ZM283.227 62.3327H202.939C202.795 62.3341 202.656 62.3812 202.541 62.4674C202.426 62.5535 202.342 62.6741 202.3 62.8114L197.919 79.3565C197.894 79.4534 197.893 79.5546 197.913 79.6523C197.934 79.7501 197.977 79.8418 198.038 79.9205C198.1 79.9992 198.179 80.0627 198.269 80.1064C198.359 80.15 198.457 80.1726 198.557 80.1723H265.86C267.443 80.1761 268.972 79.595 270.153 78.5407L284.61 65.7552C284.953 65.5088 285.204 65.1551 285.323 64.7503C285.442 64.3454 285.423 63.9124 285.268 63.5197C285.113 63.1271 284.832 62.7972 284.469 62.5822C284.106 62.3672 283.681 62.2794 283.262 62.3327H283.227Z" fill="#FF7224"/>
</svg>
