<svg width="495" height="321" viewBox="0 0 495 321" fill="none" xmlns="http://www.w3.org/2000/svg">
<g style="mix-blend-mode:screen" clip-path="url(#clip0_2_217)" filter="url(#filter0_i_2_217)">
<g filter="url(#filter1_i_2_217)">
<path d="M24.9195 81.0654C33.589 28.8245 69.3474 0 122.808 0C169.405 0 204.083 26.2979 204.083 71.0086C204.083 118.898 168.324 148.474 135.09 170.817L107.638 189.907L88.8557 202.837L87.4121 212.208H192.881L184.937 257.249H0L9.03239 203.2L44.0649 179.784L101.138 141.943C131.114 122.87 152.421 103.408 152.421 76.3838C152.421 54.7674 136.162 46.1225 118.469 46.1225C96.791 46.1225 80.9039 56.5674 76.9279 81.0654H24.9195Z" fill="#FF5100"/>
<path d="M264.117 157.565C281.052 157.565 294.374 164.955 300.09 179.42L337.407 139.358C324.737 124.835 306.004 116.85 283.625 116.85C260.529 116.85 248.585 124.422 240.278 131.985H230.883L243.528 80.0993H358.755L366.336 36.5034H210.294L175.261 176.299H224.02C235.222 163.691 247.116 157.565 264.117 157.565Z" fill="#FF5100"/>
<path d="M204.454 282.102L239.198 244.814C224.771 240.199 216.151 229.226 215.35 212.258H163.342C163.342 242.255 177.538 268.049 204.454 282.102Z" fill="#FF5100"/>
<path d="M385.193 87.9433L378.552 95.3744L371.879 102.806L358.533 117.593C349.596 127.419 340.638 137.225 331.658 147.013C322.7 156.813 313.659 166.548 304.66 176.308L277.538 205.495L250.317 234.576C241.194 244.236 232.12 253.93 222.964 263.549C213.808 273.168 204.66 282.796 195.471 292.39L181.646 306.732L174.692 313.866L167.739 321L174.338 313.569L181.011 306.138L194.366 291.35C203.296 281.524 212.252 271.718 221.232 261.931C230.19 252.122 239.231 242.395 248.23 232.627L275.352 203.448L302.573 174.367C311.696 164.715 320.77 155.022 329.934 145.402C339.098 135.783 348.23 126.148 357.419 116.553L371.244 102.211L378.165 95.0441L385.193 87.9433Z" fill="#FF5100"/>
<path d="M298.152 211.919L283.964 264.994C283.947 265.059 283.946 265.127 283.96 265.193C283.974 265.258 284.003 265.32 284.044 265.372C284.086 265.425 284.139 265.467 284.199 265.496C284.259 265.525 284.326 265.54 284.393 265.539H296.766C296.861 265.539 296.954 265.507 297.03 265.449C297.106 265.391 297.161 265.309 297.186 265.217L311.358 212.142C311.376 212.077 311.378 212.009 311.365 211.943C311.353 211.877 311.325 211.815 311.284 211.762C311.243 211.708 311.191 211.665 311.131 211.635C311.071 211.605 311.004 211.589 310.937 211.589H298.581C298.483 211.592 298.39 211.625 298.313 211.685C298.236 211.744 298.179 211.826 298.152 211.919Z" fill="#FF5100"/>
<path d="M310.096 240.818L328.507 265.407C328.548 265.462 328.602 265.507 328.663 265.537C328.725 265.567 328.793 265.582 328.862 265.58H344.708C344.788 265.582 344.867 265.562 344.936 265.521C345.006 265.48 345.062 265.42 345.099 265.349C345.136 265.277 345.152 265.197 345.146 265.117C345.139 265.036 345.11 264.96 345.062 264.895L326.552 239.481C326.123 238.89 325.939 238.156 326.039 237.432C326.139 236.708 326.515 236.052 327.088 235.6L356.429 212.373C356.499 212.317 356.549 212.24 356.573 212.153C356.597 212.067 356.594 211.975 356.565 211.89C356.535 211.805 356.48 211.732 356.407 211.679C356.334 211.627 356.247 211.598 356.157 211.597H340.633C340.537 211.598 340.445 211.63 340.369 211.688L310.921 234.609C310.004 235.324 309.403 236.371 309.249 237.524C309.095 238.678 309.399 239.846 310.096 240.777" fill="#FF5100"/>
<path d="M363.531 252.617C363.302 252.272 363.153 251.881 363.093 251.471C363.033 251.061 363.064 250.644 363.185 250.247L369.363 227.244C369.651 226.24 370.256 225.357 371.087 224.726C371.871 224.07 372.854 223.7 373.875 223.677H418.253C418.349 223.677 418.442 223.645 418.518 223.587C418.594 223.529 418.649 223.447 418.674 223.355L421.66 212.217C421.676 212.151 421.677 212.083 421.664 212.017C421.65 211.951 421.621 211.889 421.58 211.836C421.538 211.783 421.486 211.739 421.425 211.709C421.365 211.68 421.298 211.664 421.231 211.663H375.764C371.31 211.773 367.022 213.379 363.589 216.221C359.991 218.995 357.366 222.84 356.091 227.203L349.954 250.247C348.889 254.178 349.343 258.116 351.537 261.122C353.732 264.127 357.221 265.613 361.147 265.613H407.01C407.106 265.613 407.199 265.582 407.275 265.523C407.351 265.465 407.406 265.384 407.431 265.291L410.417 254.136C410.435 254.072 410.438 254.004 410.425 253.939C410.412 253.873 410.384 253.811 410.343 253.758C410.302 253.705 410.25 253.663 410.19 253.634C410.129 253.605 410.063 253.59 409.996 253.591H365.651C365.246 253.609 364.842 253.53 364.474 253.36C364.105 253.191 363.782 252.936 363.531 252.617Z" fill="#FF5100"/>
<path d="M481.381 223.165C481.637 222.81 481.513 222.389 481.2 221.968L473.017 211.804C472.977 211.752 472.926 211.71 472.867 211.681C472.809 211.653 472.744 211.638 472.679 211.639H432.054C431.958 211.639 431.865 211.67 431.789 211.729C431.713 211.787 431.658 211.868 431.633 211.961L428.672 223.099C428.655 223.164 428.654 223.233 428.668 223.299C428.682 223.365 428.711 223.426 428.752 223.48C428.793 223.533 428.846 223.576 428.906 223.606C428.967 223.636 429.033 223.652 429.101 223.652H480.301C480.513 223.679 480.728 223.648 480.924 223.562C481.12 223.476 481.29 223.339 481.414 223.165H481.381ZM489.58 232.619H426.453C426.357 232.619 426.264 232.651 426.188 232.709C426.112 232.767 426.057 232.849 426.032 232.941L423.079 244.055C423.061 244.12 423.059 244.188 423.071 244.254C423.084 244.32 423.112 244.382 423.153 244.435C423.193 244.489 423.246 244.532 423.306 244.562C423.366 244.592 423.432 244.608 423.5 244.608H488.863C488.966 244.606 489.065 244.568 489.143 244.501L494.917 239.489C494.973 239.429 495.003 239.351 495.003 239.27C495.003 239.189 494.973 239.111 494.917 239.051L489.877 232.776C489.836 232.727 489.784 232.687 489.726 232.66C489.667 232.633 489.604 232.619 489.539 232.619H489.58ZM475.063 253.575H420.893C420.797 253.575 420.704 253.607 420.628 253.665C420.552 253.723 420.498 253.805 420.472 253.897L417.511 265.035C417.493 265.1 417.491 265.168 417.503 265.234C417.516 265.3 417.544 265.362 417.585 265.416C417.625 265.47 417.678 265.513 417.738 265.543C417.798 265.573 417.865 265.588 417.932 265.589H463.3C464.369 265.587 465.4 265.196 466.203 264.49L475.953 255.87C476.178 255.702 476.34 255.464 476.416 255.194C476.492 254.924 476.478 254.637 476.374 254.376C476.271 254.115 476.085 253.896 475.845 253.751C475.606 253.606 475.325 253.544 475.046 253.575" fill="#FF5100"/>
<path d="M300.073 200.153H300.453C302.004 200.153 302.928 198.84 303.686 194.159L304.429 189.758H312.504L310.525 201.516H309.147L310.896 191.079H305.518L304.998 194.159C304.033 199.732 302.738 201.516 300.222 201.516H299.843L300.073 200.153Z" fill="#FF5100"/>
<path d="M323.995 198.411C323.716 199.432 323.097 200.327 322.24 200.947C321.384 201.567 320.341 201.876 319.285 201.821C316.687 201.821 314.55 199.848 314.55 196.718C314.55 192.656 316.662 189.453 320.431 189.453C323.393 189.453 324.762 191.88 324.762 194.605C324.762 194.861 324.762 195.1 324.762 195.381H316.06C315.993 195.801 315.962 196.227 315.969 196.652C315.969 198.956 317.338 200.508 319.491 200.508C320.164 200.559 320.835 200.379 321.392 199.998C321.95 199.617 322.361 199.057 322.56 198.411H323.995ZM316.348 194.06H323.327C323.211 192.21 322.362 190.757 320.341 190.757C318.32 190.757 316.951 192.144 316.348 194.06Z" fill="#FF5100"/>
<path d="M326.997 189.758H336.219L335.997 191.079H332.095L330.346 201.524H328.928L330.676 191.079H326.775L326.997 189.758Z" fill="#FF5100"/>
<path d="M351.892 198.155C351.644 199.238 351.022 200.199 350.137 200.869C349.252 201.54 348.159 201.877 347.05 201.821C344.493 201.821 342.406 199.873 342.406 196.793C342.406 192.937 344.493 189.453 348.18 189.453C349.211 189.404 350.223 189.744 351.016 190.406C351.808 191.068 352.324 192.004 352.461 193.028H351.026C350.909 192.361 350.549 191.761 350.016 191.344C349.483 190.928 348.814 190.725 348.139 190.774C345.376 190.774 343.85 193.779 343.85 196.719C343.85 199.096 345.194 200.508 347.19 200.508C347.926 200.551 348.654 200.341 349.254 199.913C349.854 199.485 350.29 198.865 350.49 198.155H351.892Z" fill="#FF5100"/>
<path d="M368.621 195.571C369.1 195.738 369.51 196.06 369.787 196.486C370.063 196.912 370.19 197.418 370.147 197.924C370.147 200.153 368.423 201.516 365.932 201.516H360.289L362.261 189.758H367.309C369.281 189.758 370.427 190.724 370.427 192.441C370.468 193.002 370.331 193.562 370.035 194.04C369.738 194.517 369.298 194.889 368.777 195.1L368.621 195.571ZM362.591 196.132L361.898 200.203H366.22C366.542 200.234 366.867 200.195 367.173 200.09C367.479 199.984 367.759 199.814 367.994 199.591C368.228 199.368 368.412 199.097 368.533 198.797C368.654 198.496 368.709 198.173 368.695 197.85C368.695 196.652 367.821 196.132 366.765 196.132H362.591ZM363.416 191.079L362.789 194.819H366.674C366.973 194.86 367.277 194.833 367.564 194.74C367.851 194.647 368.114 194.492 368.333 194.284C368.552 194.077 368.722 193.823 368.83 193.541C368.939 193.26 368.983 192.957 368.959 192.656C368.959 191.55 368.175 191.079 367.185 191.079H363.416Z" fill="#FF5100"/>
<path d="M380.012 200.228H379.567C379.138 200.742 378.599 201.153 377.989 201.429C377.379 201.705 376.714 201.839 376.045 201.821C375.565 201.863 375.082 201.804 374.628 201.645C374.173 201.487 373.757 201.234 373.407 200.904C373.057 200.573 372.781 200.172 372.598 199.726C372.414 199.281 372.326 198.802 372.341 198.32C372.341 195.843 374.048 194.192 376.853 194.192H380.977L381.043 193.812C381.12 193.482 381.158 193.144 381.159 192.805C381.159 191.649 380.334 190.782 378.47 190.782C376.606 190.782 375.434 191.608 375.236 192.805H373.826C374.205 190.642 376.061 189.502 378.602 189.502C381.142 189.502 382.545 190.798 382.545 192.805C382.546 193.206 382.51 193.607 382.437 194.002L381.159 201.598H379.79L380.012 200.228ZM380.623 196.487L380.804 195.43H377.142C375.236 195.43 373.784 196.322 373.784 198.23C373.784 199.633 374.7 200.508 376.342 200.508C377.413 200.447 378.428 200.01 379.211 199.275C379.993 198.54 380.493 197.554 380.623 196.487Z" fill="#FF5100"/>
<path d="M386.875 189.758H389.3L391.272 195.455H391.726L395.561 189.758H398.094L396.122 201.524H394.703L396.436 191.219H396.048L392.237 196.818H390.373L388.451 191.219H388.047L386.314 201.524H384.904L386.875 189.758Z" fill="#FF5100"/>
<path d="M399.908 201.524L401.88 189.766H403.299L401.542 200.063H401.995L408.792 189.766H411.44L409.46 201.524H408.05L409.774 191.219H409.328L402.441 201.524H399.908Z" fill="#FF5100"/>
<path d="M413.791 201.516L414.17 199.121H416.051L415.672 201.516H413.791ZM418.27 184.73L417.107 191.715L415.87 197.329H414.954L415.622 191.715L416.793 184.73H418.27Z" fill="#FF5100"/>
</g>
</g>
<defs>
<filter id="filter0_i_2_217" x="0" y="0" width="495" height="325" filterUnits="userSpaceOnUse" color-interpolation-filters="sRGB">
<feFlood flood-opacity="0" result="BackgroundImageFix"/>
<feBlend mode="normal" in="SourceGraphic" in2="BackgroundImageFix" result="shape"/>
<feColorMatrix in="SourceAlpha" type="matrix" values="0 0 0 0 0 0 0 0 0 0 0 0 0 0 0 0 0 0 127 0" result="hardAlpha"/>
<feOffset dy="4"/>
<feGaussianBlur stdDeviation="2"/>
<feComposite in2="hardAlpha" operator="arithmetic" k2="-1" k3="1"/>
<feColorMatrix type="matrix" values="0 0 0 0 0 0 0 0 0 0 0 0 0 0 0 0 0 0 0.25 0"/>
<feBlend mode="normal" in2="shape" result="effect1_innerShadow_2_217"/>
</filter>
<filter id="filter1_i_2_217" x="0" y="0" width="499.003" height="325" filterUnits="userSpaceOnUse" color-interpolation-filters="sRGB">
<feFlood flood-opacity="0" result="BackgroundImageFix"/>
<feBlend mode="normal" in="SourceGraphic" in2="BackgroundImageFix" result="shape"/>
<feColorMatrix in="SourceAlpha" type="matrix" values="0 0 0 0 0 0 0 0 0 0 0 0 0 0 0 0 0 0 127 0" result="hardAlpha"/>
<feOffset dx="4" dy="4"/>
<feGaussianBlur stdDeviation="3"/>
<feComposite in2="hardAlpha" operator="arithmetic" k2="-1" k3="1"/>
<feColorMatrix type="matrix" values="0 0 0 0 0 0 0 0 0 0 0 0 0 0 0 0 0 0 0.25 0"/>
<feBlend mode="normal" in2="shape" result="effect1_innerShadow_2_217"/>
</filter>
<clipPath id="clip0_2_217">
<rect width="495" height="321" fill="white"/>
</clipPath>
</defs>
</svg>
